<?xml version="1.0" encoding="utf-8"?>
<!-- Generator: Adobe Illustrator 26.3.1, SVG Export Plug-In . SVG Version: 6.00 Build 0)  -->
<svg version="1.1" id="Layer_1" xmlns="http://www.w3.org/2000/svg" xmlns:xlink="http://www.w3.org/1999/xlink" x="0px" y="0px"
	 viewBox="0 0 500 500" style="enable-background:new 0 0 500 500;" xml:space="preserve">
<g>
	<polygon points="63.4,437 63.4,408.1 132.6,408.1 132.6,407 132.7,407 132.7,268.6 270.6,268.6 270.6,228 132.7,228 92.2,228 
		92.1,228 92.1,367.5 22.6,367.5 22.6,408.1 22.8,408.1 22.8,477.6 23.2,477.6 63.4,477.6 374.1,477.6 374.1,437 	"/>
	<rect x="92.2" y="160.6" width="178.4" height="40.6"/>
</g>
<g>
	<polygon points="22.8,22.4 22.6,22.4 22.8,339.4 63.4,339.4 63.4,63 92.1,63 92.1,132.4 132.7,132.4 132.7,22.4 132.6,22.4 	"/>
	<polygon points="160.9,22.8 160.9,63.4 229.9,63.4 229.9,91.4 160.9,91.4 160.9,132.1 270.6,132.1 270.6,91.4 270.6,91.4 
		270.6,63.4 270.6,63.4 270.6,22.8 270.6,22.8 	"/>
	<rect x="298.8" y="22.7" width="178.4" height="40.6"/>
	<rect x="436.6" y="91.4" width="40.6" height="178.3"/>
	<polygon points="367.6,230.1 298.2,230.1 298.2,270.7 367.6,270.7 408.2,270.7 408.2,230.1 408.2,160.7 367.6,160.7 	"/>
	<rect x="299.1" y="91.4" width="40.6" height="110.1"/>
	<rect x="367.8" y="91.4" width="40.6" height="40.6"/>
</g>
<g>
	<polygon points="408.5,367.5 408.2,367.5 408.2,298.8 367.6,298.8 367.6,367.5 265.5,367.5 265.5,408.1 408.5,408.1 	"/>
	<polygon points="436.6,436.7 402.5,436.7 402.5,477.3 436.6,477.3 477.2,477.3 477.2,436.7 477.2,368.1 436.6,368.1 	"/>
	<rect x="436.6" y="298.8" width="40.6" height="40.6"/>
	<rect x="299" y="298.6" width="40.6" height="40.6"/>
</g>
<polygon points="270.6,339.4 270.6,298.8 160.9,298.8 160.9,339.4 229.9,339.4 229.9,367.5 160.9,367.5 160.9,408.1 229.9,408.1 
	270.6,408.1 270.6,408.1 270.6,367.5 270.6,367.5 270.6,339.4 "/>
</svg>
