<?xml version="1.0" encoding="utf-8"?>
<!-- Generator: Adobe Illustrator 26.3.1, SVG Export Plug-In . SVG Version: 6.00 Build 0)  -->
<svg version="1.1" id="Layer_1" xmlns="http://www.w3.org/2000/svg" xmlns:xlink="http://www.w3.org/1999/xlink" x="0px" y="0px"
	 viewBox="0 0 500 500" style="enable-background:new 0 0 500 500;" xml:space="preserve">
<style type="text/css">
	.st0{fill:#FFFFFF;}
	.st1{fill:#00AA23;}
	.st2{fill:#FF2D0B;}
</style>
<rect width="500" height="500"/>
<g>
	<polygon class="st0" points="63.5,437 63.5,408.1 132.7,408.1 132.7,407 132.8,407 132.8,268.6 270.7,268.6 270.7,228 132.8,228 
		92.3,228 92.1,228 92.1,367.5 22.7,367.5 22.7,408.1 22.9,408.1 22.9,477.6 23.2,477.6 63.5,477.6 374.2,477.6 374.2,437 	"/>
	<rect x="92.3" y="160.6" class="st0" width="178.4" height="40.6"/>
</g>
<g>
	<polygon class="st1" points="22.9,22.4 22.7,22.4 22.9,339.4 63.5,339.4 63.5,63 92.1,63 92.1,132.4 132.8,132.4 132.8,22.4 
		132.7,22.4 	"/>
	<polygon class="st1" points="160.9,22.8 160.9,63.4 230,63.4 230,91.4 160.9,91.4 160.9,132.1 270.7,132.1 270.7,91.4 270.7,91.4 
		270.7,63.4 270.7,63.4 270.7,22.8 270.7,22.8 	"/>
	<rect x="298.9" y="22.7" class="st1" width="178.4" height="40.6"/>
	<rect x="436.7" y="91.4" class="st1" width="40.6" height="178.3"/>
	<polygon class="st1" points="367.7,230.1 298.3,230.1 298.3,270.7 367.7,270.7 408.3,270.7 408.3,230.1 408.3,160.7 367.7,160.7 	
		"/>
	<rect x="299.2" y="91.4" class="st1" width="40.6" height="110.1"/>
	<rect x="367.9" y="91.4" class="st1" width="40.6" height="40.6"/>
</g>
<g>
	<polygon class="st2" points="408.5,367.5 408.3,367.5 408.3,298.8 367.7,298.8 367.7,367.5 265.6,367.5 265.6,408.1 408.5,408.1 	
		"/>
	<polygon class="st2" points="436.7,436.7 402.5,436.7 402.5,477.3 436.7,477.3 477.3,477.3 477.3,436.7 477.3,368.1 436.7,368.1 	
		"/>
	<rect x="436.7" y="298.8" class="st2" width="40.6" height="40.6"/>
	<rect x="299.1" y="298.6" class="st2" width="40.6" height="40.6"/>
</g>
<polygon class="st0" points="270.7,339.4 270.7,298.8 160.9,298.8 160.9,339.4 230,339.4 230,367.5 160.9,367.5 160.9,408.1 
	230,408.1 270.7,408.1 270.7,408.1 270.7,367.5 270.7,367.5 270.7,339.4 "/>
</svg>
